<?xml version="1.0" encoding="utf-8"?>
<!-- Generator: Adobe Illustrator 17.0.2, SVG Export Plug-In . SVG Version: 6.00 Build 0)  -->
<!DOCTYPE svg PUBLIC "-//W3C//DTD SVG 1.1//EN" "http://www.w3.org/Graphics/SVG/1.1/DTD/svg11.dtd">
<svg version="1.1" id="Layer_1" xmlns="http://www.w3.org/2000/svg" xmlns:xlink="http://www.w3.org/1999/xlink" x="0px" y="0px"
	 width="95.2px" height="24px" viewBox="0 0 95.2 24" style="enable-background:new 0 0 95.2 24;" xml:space="preserve">
<g>
	<g>
		<path style="fill:#E9E7C5;" d="M39.8,0.7C39.2,0.3,38.2,0,37.1,0c-1.2,0-2.1,0.2-2.8,0.6c-0.7,0.4-1.2,0.8-1.5,1.3
			c-0.9,1.2-1.4,2.8-1.4,4.9v10.3c0,2.1,0.5,3.8,1.4,4.9c0.2,0.2,0.4,0.4,0.6,0.7c0.2,0.2,0.6,0.4,0.9,0.6c0.4,0.2,0.8,0.3,1.2,0.5
			c0.5,0.1,1,0.2,1.6,0.2c1.2,0,2.1-0.2,2.8-0.6c0.7-0.4,1.2-0.9,1.5-1.3c0.9-1.2,1.4-2.8,1.4-4.9v-1.5h-3.1v1.5
			c0,1.4-0.2,2.4-0.7,3.1c-0.1,0.2-0.3,0.3-0.6,0.5c-0.3,0.2-0.7,0.3-1.3,0.3c-0.6,0-1-0.1-1.3-0.3c-0.3-0.2-0.5-0.3-0.6-0.5
			c-0.5-0.6-0.7-1.6-0.7-3.1V6.9c0-0.9,0.1-1.7,0.3-2.2c0.2-0.5,0.4-0.9,0.7-1.1c0.3-0.2,0.6-0.4,0.9-0.4c0.3,0,0.6-0.1,0.8-0.1
			c0.2,0,0.5,0,0.8,0.1c0.3,0,0.6,0.2,0.9,0.4c0.3,0.2,0.5,0.6,0.7,1.1c0.2,0.5,0.3,1.2,0.3,2.2v1.5h3.1V6.9c0-2.1-0.5-3.7-1.4-4.9
			C41,1.5,40.5,1.1,39.8,0.7z M54.4,12.2c0.1,0,0.1-0.1,0.2-0.2c0.1-0.1,0.1-0.1,0.1-0.2c1-1.1,1.4-2.8,1.4-5c0-2.2-0.5-3.9-1.4-5
			c-1-1.2-2.6-1.8-4.7-1.8h-5v24h3.1V13.7h1.9c2,0,3.1,1.1,3.1,3.2V24h3.1v-7.1c0-1-0.2-1.9-0.5-2.7C55.4,13.4,55,12.8,54.4,12.2z
			 M52.4,9.9c-0.1,0.1-0.3,0.3-0.6,0.5c-0.3,0.2-0.9,0.3-1.7,0.3h-1.9V3.1h1.9c0.5,0,0.9,0,1.3,0.1c0.4,0.1,0.7,0.3,0.9,0.5
			c0.2,0.3,0.4,0.6,0.6,1.1C53,5.4,53.1,6,53.1,6.8C53.1,8.3,52.9,9.3,52.4,9.9z M63.3,0l-5.5,24H61l1.5-6.7h4.2l1.5,6.7h3.2L65.8,0
			H63.3z M63.2,14.3l1.4-5.9l1.4,5.9H63.2z M72.9,0v24H76V13.5h6.9v-3.1H76V3.1h10.9V24H90V3.1h5.2V0H72.9z"/>
	</g>
</g>
<path style="fill:#E85A32;" d="M0,0l0,24l24,0V0H0z M18,18l-8.2,2.2l-6-6L6,6l8.2-2.2l6,6L18,18z"/>
<path style="fill:#E85A32;" d="M9.4,9.4c-1.4,1.4-1.4,3.8,0,5.2c1.4,1.4,3.8,1.4,5.2,0c1.4-1.4,1.4-3.8,0-5.2S10.8,7.9,9.4,9.4z"/>
</svg>
