<?xml version="1.0" encoding="utf-8"?>
<!-- Generator: Adobe Illustrator 17.0.2, SVG Export Plug-In . SVG Version: 6.00 Build 0)  -->
<!DOCTYPE svg PUBLIC "-//W3C//DTD SVG 1.1//EN" "http://www.w3.org/Graphics/SVG/1.1/DTD/svg11.dtd">
<svg version="1.1" id="Layer_1" xmlns="http://www.w3.org/2000/svg" xmlns:xlink="http://www.w3.org/1999/xlink" x="0px" y="0px"
	 width="48px" height="48px" viewBox="460.4 258.7 48 48" style="enable-background:new 460.4 258.7 48 48;" xml:space="preserve">
<g>
	<g>
		<circle style="fill:#E9E7C5;" cx="484.4" cy="282.7" r="24"/>
	</g>
</g>
<path style="fill:#E85A32;" d="M496.4,276.1c-0.9,0.4-1.8,0.7-2.8,0.8c1-0.6,1.8-1.6,2.2-2.8c-1,0.6-2,1-3.1,1.2
	c-0.9-1-2.2-1.6-3.6-1.6c-2.7,0-4.9,2.3-4.9,5c0,0.4,0,0.8,0.1,1.1c-4.1-0.2-7.7-2.2-10.1-5.3c-0.4,0.7-0.7,1.6-0.7,2.5
	c0,1.8,0.9,3.3,2.2,4.2c-0.8,0-1.6-0.3-2.2-0.6c0,0,0,0,0,0.1c0,2.4,1.7,4.5,3.9,4.9c-0.4,0.1-0.8,0.2-1.3,0.2c-0.3,0-0.6,0-0.9-0.1
	c0.6,2,2.4,3.5,4.6,3.5c-1.7,1.4-3.8,2.2-6.1,2.2c-0.4,0-0.8,0-1.2-0.1c2.2,1.4,4.8,2.3,7.5,2.3c9.1,0,14-7.7,14-14.4
	c0-0.2,0-0.4,0-0.7C494.9,278,495.8,277.1,496.4,276.1z"/>
</svg>
