<?xml version="1.0" encoding="utf-8"?>
<!-- Generator: Adobe Illustrator 17.0.2, SVG Export Plug-In . SVG Version: 6.00 Build 0)  -->
<!DOCTYPE svg PUBLIC "-//W3C//DTD SVG 1.1//EN" "http://www.w3.org/Graphics/SVG/1.1/DTD/svg11.dtd">
<svg version="1.1" id="Layer_1" xmlns="http://www.w3.org/2000/svg" xmlns:xlink="http://www.w3.org/1999/xlink" x="0px" y="0px"
	 width="24px" height="24px" viewBox="0 0 24 24" style="enable-background:new 0 0 24 24;" xml:space="preserve">
<g>
	<g>
		<circle style="fill-rule:evenodd;clip-rule:evenodd;fill:#E85A32;" cx="12" cy="12" r="12"/>
	</g>
</g>
<path style="fill-rule:evenodd;clip-rule:evenodd;fill:#E9E7C5;" d="M12.6,15c0.1,0.1,0.2,0,0.3,0c1-0.3,2.1-0.6,3.2-0.8
	c0.4-0.1,0.8-0.3,1-0.1c0.2,0.1,0.2,0.3,0.3,0.5c0,0.1,0,0.2,0,0.3c0,0.1,0.1,0.1,0.1,0.2c0,0,0,0.1,0,0c0,0.2,0.1,0.3,0.1,0.5
	c0,0,0,0.1,0,0.2c0,0.1-0.1,0.2-0.1,0.3c0,0-0.1,0-0.1,0c0,0,0,0,0,0c0,0-0.1,0-0.1,0c-0.1,0.2-1.2,0.4-1.5,0.5l-3.6,1
	c-0.7,0.2-1.4,0.4-1.7,0.3c-0.5-0.2-0.7-1.6-0.9-2.5c-0.4-1.4-0.6-2.5-1-3.8c0-0.1,0-0.1-0.1-0.2c0,0-0.1,0-0.1-0.1
	c-0.1-0.4-0.1-0.8-0.3-1.2c0,0-0.1,0-0.1-0.1C7.9,9.9,7.8,9.7,7.7,9.4C7.6,9,7.5,8.7,7.3,8.1C7.3,7.8,7.2,7.6,7.3,7.5
	c0-0.1,0.1-0.2,0.2-0.3C7.6,7.1,7.7,7.1,7.8,7c0.4-0.2,2-0.7,2.4-0.5c0.4,0.2,0.5,1.2,0.7,1.9c0.2,0.7,0.4,1.5,0.5,2.1L12.6,15z"/>
</svg>
