<?xml version="1.0" encoding="utf-8"?>
<!-- Generator: Adobe Illustrator 17.0.2, SVG Export Plug-In . SVG Version: 6.00 Build 0)  -->
<!DOCTYPE svg PUBLIC "-//W3C//DTD SVG 1.1//EN" "http://www.w3.org/Graphics/SVG/1.1/DTD/svg11.dtd">
<svg version="1.1" id="Layer_1" xmlns="http://www.w3.org/2000/svg" xmlns:xlink="http://www.w3.org/1999/xlink" x="0px" y="0px"
	 width="357.1px" height="90px" viewBox="0 0 357.1 90" style="enable-background:new 0 0 357.1 90;" xml:space="preserve">
<g>
	<g>
		<path style="fill:#E9E7C5;" d="M149.3,2.5c-2.5-1.5-6-2.3-10.4-2.3c-4.4,0-7.9,0.8-10.4,2.3C126,4,124,5.6,122.7,7.2
			c-3.4,4.4-5.1,10.6-5.1,18.5v38.5c0,8,1.7,14.1,5.1,18.5c0.6,0.8,1.4,1.6,2.4,2.5c0.9,0.9,2.1,1.6,3.4,2.3
			c1.3,0.7,2.9,1.3,4.6,1.7c1.7,0.4,3.7,0.7,5.9,0.7c4.4,0,7.8-0.8,10.4-2.4c2.5-1.6,4.4-3.2,5.7-4.8c3.5-4.5,5.2-10.6,5.2-18.5
			v-5.7h-11.6v5.7c0,5.2-0.9,9-2.7,11.5c-0.5,0.6-1.2,1.2-2.3,1.8c-1,0.7-2.6,1-4.8,1c-2.2,0-3.8-0.3-4.9-1
			c-1.1-0.6-1.8-1.3-2.2-1.8c-1.9-2.4-2.8-6.2-2.8-11.5V25.8c0-3.5,0.3-6.2,1-8.2c0.7-1.9,1.6-3.4,2.6-4.2c1.1-0.9,2.1-1.4,3.2-1.5
			c1.1-0.2,2.1-0.2,3-0.2c0.8,0,1.8,0.1,2.9,0.2c1.1,0.2,2.2,0.7,3.2,1.5c1,0.9,1.9,2.3,2.6,4.2c0.7,2,1,4.7,1,8.2v5.7h11.6v-5.7
			c0-7.9-1.7-14.1-5.2-18.5C153.8,5.6,151.8,4,149.3,2.5z M204,45.8c0.2-0.2,0.5-0.4,0.7-0.6c0.2-0.2,0.4-0.4,0.5-0.6
			c3.6-4.3,5.4-10.6,5.4-18.9c0-8.4-1.8-14.6-5.4-18.8c-3.9-4.5-9.7-6.8-17.4-6.8h-18.7v89.8h11.5V51.5h7.2
			c7.6,0,11.5,3.9,11.5,11.8v26.6h11.6V63.3c0-3.7-0.6-7.1-1.8-10C207.8,50.4,206.2,47.9,204,45.8z M196.4,37.1
			c-0.3,0.4-1.1,1-2.3,1.7c-1.2,0.7-3.3,1.1-6.4,1.1h-7.2V11.6h7.2c1.9,0,3.5,0.2,4.9,0.5c1.4,0.3,2.6,1,3.5,2
			c0.9,1,1.6,2.4,2.1,4.3c0.5,1.8,0.7,4.2,0.7,7.3C199.1,31,198.2,34.8,196.4,37.1z M237.4,0.2L216.7,90h11.8l5.7-25.1h15.6
			l5.7,25.1h12l-21-89.8H237.4z M237,53.4l5.1-22.1l5.1,22.1H237z M273.4,0.2V90h11.5V50.8h25.7V39.3h-25.7V11.6h41v78.2h11.6V11.6
			h19.6V0.2H273.4z M0,90l90.1,0V0H0L0,90z M22.4,22.4l30.9-8.3l22.6,22.6l-8.3,30.8l-30.9,8.3L14.2,53.3L22.4,22.4z M54.9,54.8
			c5.4-5.4,5.4-14.2,0-19.7c-5.4-5.4-14.2-5.4-19.7,0c-5.4,5.4-5.4,14.2,0,19.7C40.6,60.3,49.4,60.3,54.9,54.8z"/>
	</g>
</g>
</svg>
