<?xml version="1.0" encoding="utf-8"?>
<!-- Generator: Adobe Illustrator 17.0.2, SVG Export Plug-In . SVG Version: 6.00 Build 0)  -->
<!DOCTYPE svg PUBLIC "-//W3C//DTD SVG 1.1//EN" "http://www.w3.org/Graphics/SVG/1.1/DTD/svg11.dtd">
<svg version="1.1" id="Layer_1" xmlns="http://www.w3.org/2000/svg" xmlns:xlink="http://www.w3.org/1999/xlink" x="0px" y="0px"
	 width="24px" height="24px" viewBox="307.5 268.5 24 24" style="enable-background:new 307.5 268.5 24 24;" xml:space="preserve">
<path style="fill:#E85A32;" d="M319.5,268.5c6.6,0,12,5.4,12,12s-5.4,12-12,12s-12-5.4-12-12S312.9,268.5,319.5,268.5z"/>
<g>
	<g>
		<path style="fill:#E9E7C5;" d="M325.5,276.7c-0.4,0.2-0.9,0.3-1.4,0.4c0.5-0.3,0.9-0.8,1.1-1.4c-0.5,0.3-1,0.5-1.6,0.6
			c-0.4-0.5-1.1-0.8-1.8-0.8c-1.4,0-2.5,1.1-2.5,2.5c0,0.2,0,0.4,0.1,0.6c-2-0.1-3.9-1.1-5.1-2.6c-0.2,0.4-0.3,0.8-0.3,1.3
			c0,0.9,0.4,1.6,1.1,2.1c-0.4,0-0.8-0.1-1.1-0.3l0,0c0,1.2,0.8,2.2,2,2.5c-0.2,0.1-0.4,0.1-0.6,0.1s-0.3,0-0.5,0
			c0.3,1,1.2,1.7,2.3,1.8c-0.8,0.7-1.9,1.1-3.1,1.1c-0.2,0-0.4,0-0.6,0c1.1,0.7,2.4,1.1,3.8,1.1c4.5,0,7-3.8,7-7.2
			c0-0.1,0-0.2,0-0.3C324.7,277.6,325.2,277.2,325.5,276.7z"/>
	</g>
</g>
</svg>
