<?xml version="1.0" encoding="utf-8"?>
<!-- Generator: Adobe Illustrator 17.0.2, SVG Export Plug-In . SVG Version: 6.00 Build 0)  -->
<!DOCTYPE svg PUBLIC "-//W3C//DTD SVG 1.1//EN" "http://www.w3.org/Graphics/SVG/1.1/DTD/svg11.dtd">
<svg version="1.1" id="Layer_1" xmlns="http://www.w3.org/2000/svg" xmlns:xlink="http://www.w3.org/1999/xlink" x="0px" y="0px"
	 width="130px" height="59.3px" viewBox="0 0 130 59.3" style="enable-background:new 0 0 130 59.3;" xml:space="preserve">
<g>
	<path style="fill:#D8D4B2;" d="M29.6,12.1c-4.9,0-9,1.7-12.4,5.2c-3.5,3.4-5.2,7.6-5.2,12.4c0,4.8,1.7,9,5.2,12.4
		c3.4,3.4,7.5,5.2,12.4,5.2c4.8,0,9-1.7,12.4-5.2c3.4-3.4,5.1-7.5,5.1-12.4c0-4.9-1.7-9-5.1-12.4C38.6,13.8,34.4,12.1,29.6,12.1z
		 M40.8,40.9c-3.1,3.1-6.9,4.6-11.2,4.6c-4.4,0-8.1-1.5-11.2-4.6c-3.1-3.1-4.7-6.8-4.7-11.2c0-4.4,1.5-8.1,4.7-11.2
		c3-3.1,6.8-4.7,11.2-4.7c4.3,0,8.1,1.5,11.2,4.7c3.1,3.1,4.6,6.8,4.6,11.2C45.4,34,43.9,37.8,40.8,40.9z M29.6,15.6
		c-3.9,0-7.2,1.3-10,4.1c-2.8,2.8-4.1,6.1-4.1,10c0,3.9,1.3,7.2,4.1,10c2.8,2.8,6.1,4.1,10,4.1c3.9,0,7.2-1.4,10-4.1
		c2.8-2.8,4.1-6.1,4.1-10c0-3.9-1.4-7.2-4.1-10C36.8,16.9,33.5,15.6,29.6,15.6z M41.9,30.3c-0.1,3.4-1.5,6.3-4,8.6
		c-2.6,2.3-5.5,3.4-8.9,3.2c-3.4-0.2-6.3-1.5-8.6-4c-2.3-2.6-3.3-5.5-3.2-9c0.2-3.4,1.5-6.2,4.1-8.5c2.5-2.3,5.5-3.3,8.9-3.2
		c3.4,0.2,6.2,1.5,8.5,4.1C41.1,23.9,42.1,26.9,41.9,30.3z M49,21.5c-1-2.6-2.6-4.8-4.5-6.7c-2-1.9-4.2-3.4-6.7-4.5
		c-2.6-1.1-5.3-1.7-8.2-1.7c-2.9,0-5.6,0.6-8.2,1.7c-2.5,1.1-4.7,2.6-6.7,4.5c-1.9,1.9-3.4,4.1-4.5,6.7c-1.1,2.6-1.7,5.3-1.7,8.2
		c0,2.8,0.5,5.6,1.7,8.2c1.1,2.5,2.5,4.7,4.5,6.7c1.9,1.9,4.2,3.4,6.7,4.5c2.6,1.1,5.3,1.7,8.2,1.7c2.8,0,5.6-0.6,8.2-1.7
		c2.5-1.1,4.7-2.6,6.7-4.5c1.9-1.9,3.4-4.2,4.5-6.7c1.1-2.6,1.7-5.3,1.7-8.2C50.7,26.8,50.1,24.1,49,21.5z M47.4,37.2
		c-1,2.3-2.4,4.3-4.1,6.1c-1.8,1.8-3.8,3.2-6.1,4.1c-2.4,1-4.9,1.5-7.5,1.5c-2.6,0-5.1-0.5-7.5-1.5c-2.3-1-4.3-2.4-6.2-4.1
		c-1.7-1.8-3.2-3.8-4.1-6.1c-1-2.4-1.5-4.9-1.5-7.5c0-2.6,0.5-5.1,1.5-7.5c0.9-2.3,2.4-4.3,4.1-6.1c1.8-1.8,3.8-3.2,6.2-4.1
		c2.4-1,4.9-1.5,7.5-1.5c2.6,0,5.1,0.5,7.5,1.5c2.3,1,4.3,2.4,6.1,4.1c1.8,1.8,3.2,3.8,4.1,6.1c1,2.4,1.5,4.9,1.5,7.5
		C48.9,32.3,48.4,34.8,47.4,37.2z"/>
	<path style="fill:#D8D4B2;" d="M20.6,34.5c0.3,0.6,0.6,1.1,1,1.6V23.2c-1.5,1.8-2.2,4-2.2,6.4C19.3,31.5,19.7,33.1,20.6,34.5z
		 M23.9,38.2C23.9,38.2,23.9,38.2,23.9,38.2c0.7,0.5,1.5,0.9,2.3,1.2V20c-0.8,0.3-1.6,0.7-2.3,1.2V38.2z M28.5,19.4v20.4
		c0,0,0,0,0,0c0.4,0.1,0.7,0.1,1.1,0.1c0.4,0,0.8,0,1.1-0.1c0,0,0,0,0,0V19.4c-0.4,0-0.8-0.1-1.1-0.1C29.3,19.4,28.9,19.4,28.5,19.4
		z M33.1,39.4c0.8-0.3,1.5-0.7,2.2-1.1c0,0,0,0,0.1,0v-17c-0.7-0.5-1.5-0.9-2.3-1.2V39.4z M37.7,23.3v12.8c0.4-0.5,0.7-1,1-1.5
		c0.8-1.4,1.2-3.1,1.2-4.9C39.9,27.2,39.2,25.1,37.7,23.3z"/>
	<g>
		<path style="fill:#D8D4B2;" d="M73.2,33.7h-1.2v6.2h-4V19.4h5.2c4.2,0,8.1,2.9,8.1,7.1C81.3,30.7,77.3,33.7,73.2,33.7z M73.3,23
			h-1.3v7.1h1.3c2.2,0,3.9-1.5,3.9-3.6C77.2,24.5,75.4,23,73.3,23z"/>
		<path style="fill:#D8D4B2;" d="M88.8,30.3v9.5H85v-8.9c0-2.2-0.8-3.8-2.6-5.2l3.3-2c1,0.8,1.6,1.7,2,2.5c0.4-0.4,2.5-2.5,4.9-2.4
			l0.7,3.9C90.8,27.7,89.1,29.8,88.8,30.3z"/>
		<path style="fill:#D8D4B2;" d="M102.3,36.8c1.5,0,2.8-0.8,3.5-1.6l2.2,2.2c-0.9,1.1-2.8,2.8-6,2.8c-4.7,0-7-4-7-8.3
			c0-4.4,3-8.3,7.4-8.3c3.1,0,5.8,1.8,5.8,4.6c0,3.8-4,5.7-9.2,5.6C99.3,35.8,100.5,36.8,102.3,36.8z M104.6,28.6
			c0-0.9-0.9-1.6-2.2-1.6c-1.9,0-3.3,1.7-3.7,4C102.9,30.7,104.6,29.9,104.6,28.6z"/>
		<path style="fill:#D8D4B2;" d="M116,36.3h6.3v3.5h-12.4l6.5-12.1h-6v-3.5h12L116,36.3z"/>
		<path style="fill:#D8D4B2;" d="M127.7,21.7c-1.3,0-2.3-1.1-2.3-2.3c0-1.3,1-2.3,2.3-2.3c1.3,0,2.3,1,2.3,2.3
			C130,20.7,128.9,21.7,127.7,21.7z M125.8,39.8V24.2h3.9v15.6H125.8z"/>
	</g>
	<path style="fill:#D8D4B2;" d="M25,0.4c-1,0.2-2,0.4-3,0.6l1.6,6.1c0.8-0.2,1.6-0.4,2.4-0.5L25,0.4z M10,17l-5.3-3.4
		c-0.6,0.9-1.1,1.8-1.6,2.7l5.6,2.9C9.2,18.4,9.6,17.6,10,17 M19,2c-1,0.4-1.9,0.8-2.8,1.3L19,8.8c0.7-0.4,1.5-0.7,2.2-1L19,2z
		 M16.9,10.1l-3.4-5.3C12.6,5.4,11.8,6,11,6.6l4,4.9C15.6,11,16.2,10.5,16.9,10.1 M13.1,13.2L8.6,8.7C7.9,9.4,7.2,10.2,6.6,11l4.9,4
		C12,14.3,12.5,13.7,13.1,13.2 M44.3,11.5l4-4.9c-0.8-0.7-1.7-1.3-2.6-1.9l-3.4,5.3C43,10.5,43.7,11,44.3,11.5 M43.1,3.2
		c-0.9-0.5-1.9-0.9-2.8-1.3L38,7.9c0.8,0.3,1.5,0.6,2.3,1L43.1,3.2z M47.8,15l4.9-4c-0.7-0.8-1.3-1.6-2.1-2.3l-4.5,4.4
		C46.7,13.7,47.3,14.3,47.8,15 M50.4,19.1l5.6-2.9c-0.5-0.9-1-1.8-1.5-2.7L49.2,17C49.7,17.6,50.1,18.3,50.4,19.1 M52.2,23.6
		l6.1-1.6c-0.3-1-0.6-2-1-3l-5.9,2.3C51.7,22,52,22.8,52.2,23.6 M37.3,1c-1-0.3-2-0.5-3-0.6l-1,6.2c0.8,0.1,1.6,0.3,2.4,0.5L37.3,1z
		 M31.2,0c-1-0.1-2.1-0.1-3.1,0l0.3,6.3c0.8,0,1.6,0,2.4,0L31.2,0z M7.1,35.7L1,37.4c0.3,1,0.6,2,0.9,2.9L7.8,38
		C7.5,37.3,7.3,36.5,7.1,35.7 M52.7,33.3l6.2,1c0.2-1,0.3-2.1,0.3-3.1L53,30.9C52.9,31.7,52.8,32.5,52.7,33.3 M51.4,38l5.9,2.3
		c0.4-1,0.7-2,1-3l-6.1-1.6C52,36.5,51.7,37.3,51.4,38 M58.9,25l-6.2,1c0.1,0.8,0.2,1.6,0.3,2.4l0,0l6.3-0.3l0,0
		C59.2,27.1,59.1,26,58.9,25 M49.2,42.4l5.3,3.4c0.6-0.9,1.1-1.8,1.6-2.7l-5.6-2.9C50.1,41,49.7,41.7,49.2,42.4 M46.1,46.2l4.5,4.5
		c0.7-0.7,1.4-1.5,2.1-2.3l-4.9-4C47.3,45,46.7,45.6,46.1,46.2 M42.4,49.2l3.4,5.3c0.9-0.6,1.7-1.2,2.5-1.8l-4-4.9
		C43.7,48.3,43,48.8,42.4,49.2 M7.8,21.3l-5.9-2.2C1.6,20,1.2,21,1,22l6.1,1.6C7.3,22.8,7.5,22.1,7.8,21.3 M11.5,44.3l-4.9,4
		c0.7,0.8,1.4,1.6,2.1,2.3l4.5-4.4C12.5,45.6,12,45,11.5,44.3 M8.8,40.3l-5.6,2.9c0.5,0.9,1,1.8,1.5,2.7l5.3-3.4
		C9.6,41.7,9.2,41,8.8,40.3 M6.3,30.9L0,31.2c0.1,1,0.2,2,0.3,3l6.2-1C6.4,32.5,6.3,31.7,6.3,30.9 M14.9,47.8l-4,4.9
		c0.8,0.7,1.6,1.3,2.5,1.8l3.5-5.3C16.2,48.8,15.6,48.3,14.9,47.8 M6.6,26l-6.2-1c-0.2,1-0.3,2-0.3,3.1l6.3,0.3
		C6.3,27.6,6.4,26.8,6.6,26 M38,51.5l2.2,5.9c1-0.4,1.9-0.8,2.9-1.3l-2.9-5.6C39.5,50.8,38.8,51.2,38,51.5 M16.2,56.1
		c0.9,0.5,1.9,0.9,2.8,1.3l2.2-5.9c-0.8-0.3-1.5-0.6-2.2-1L16.2,56.1z M28,59.3c1,0.1,2.1,0.1,3.1,0L30.9,53c-0.8,0-1.6,0-2.4,0
		L28,59.3z M33.3,52.7l1,6.2c1-0.2,2-0.4,3-0.6l-1.6-6.1C34.9,52.4,34.1,52.6,33.3,52.7 M22,58.3c1,0.3,2,0.5,3,0.6l1-6.2
		c-0.8-0.1-1.6-0.3-2.4-0.5L22,58.3z"/>
</g>
</svg>
