<?xml version="1.0" encoding="utf-8"?>
<!-- Generator: Adobe Illustrator 17.0.2, SVG Export Plug-In . SVG Version: 6.00 Build 0)  -->
<!DOCTYPE svg PUBLIC "-//W3C//DTD SVG 1.1//EN" "http://www.w3.org/Graphics/SVG/1.1/DTD/svg11.dtd">
<svg version="1.1" id="Layer_1" xmlns="http://www.w3.org/2000/svg" xmlns:xlink="http://www.w3.org/1999/xlink" x="0px" y="0px"
	 width="130px" height="59.3px" viewBox="0 0 130 59.3" style="enable-background:new 0 0 130 59.3;" xml:space="preserve">
<path style="fill:#D8D4B2;" d="M19.6,17.4h-5.4v14.1c0,4.2-1.6,6.1-4.4,6.1c-2.8,0-4.3-2.1-4.3-6.1V17.4H0v13.6
	c0,7.5,3.6,10.8,9.6,10.8c6.3,0,10-3.5,10-10.8V17.4z M128.7,17.4h-7.1l-2.6,8.1c-0.8,2.7-1.6,5.8-2.3,8.6h-0.1
	c-0.5-2.8-1.3-5.8-2-8.6l-2.3-8.2H105l-1.3,19.8l-6-19.8h-7.1l-5.9,19.7h-9.1v-5.7h8.8v-4.4h-8.8v-5H85v-4.6H70.2V22
	c-0.4-1.1-1-2-1.9-2.7c-1.7-1.4-4.3-1.9-7.9-1.9c-2.6,0-27.3,0-29.7,0c-5.7,0-9.2,3-9.2,7c0,3.4,2.6,5.6,6.7,7
	c2.9,1,4.1,1.9,4.1,3.3c0,1.5-1.3,2.6-3.9,2.6c-2.3,0-5-0.1-7.6-0.1c-0.8,2.2-2,3.5-3.5,4.5c5.7,0,8,0,10.8,0c6.7,0,9.8-3.4,9.8-7.3
	c0-3.3-2-5.5-6.3-7.1c-3.1-1.2-4.5-1.8-4.5-3.3c0-1.2,1.2-1.9,3.5-1.9c2.4,0,1.3,0,5.4,0h6.3v19.5h5.4V22.2h5.3v19.5h5.5v-9.4h1.7
	c2.2,0,3.3,0.9,3.9,3.8c0.7,3,1.3,4.9,1.7,5.6H89l1.7-6.2h6.8l1.8,6.2h9.2l0.4-9.1c0.2-3,0.3-6.7,0.4-9.9h0.1
	c0.6,3.1,1.4,6.6,2.2,9.4l2.6,9.3h4.2l2.9-9.4c0.9-2.8,1.9-6.2,2.7-9.3h0.1c0,3.5,0.1,7,0.2,9.9l0.4,9.2h5.3L128.7,17.4z M60.7,28.3
	h-2.2v-6.6c0.4-0.1,1.2-0.2,2.5-0.2c2.5,0,4.1,1.1,4.1,3.3C65.1,26.9,63.5,28.3,60.7,28.3z M70.2,37.4c-0.2-0.8-0.5-1.7-0.7-2.6
	c-0.6-2.2-1.6-3.8-3.3-4.5v-0.1c1.6-0.6,3.3-1.9,4-3.9V37.4z M91.5,31.4l1.4-5.1c0.4-1.4,0.7-3.2,1.1-4.6h0.1
	c0.4,1.4,0.8,3.2,1.2,4.6l1.5,5.1H91.5z"/>
</svg>
